<svg xmlns="http://www.w3.org/2000/svg" fill="none" width="657" height="114" viewBox="0 0 657 114">
	<path fill="#09AA31" fill-rule="evenodd" d="M67.67 56.72c0 6.08-4.93 11.01-11.01 11.01S45.65 62.8 45.65 56.72s4.93-11.01 11.01-11.01 11.01 4.93 11.01 11.01ZM40 67.4a.435.435 0 0 0 .023.04l.012.018.045.062a6.806 6.806 0 0 1 1.12 3.75c0 3.78-3.07 6.85-6.85 6.85-2.34 0-4.41-1.18-5.64-2.97l-.06-.09c-.05-.08-.1-.15-.15-.22a33.33 33.33 0 0 1-5.33-18.13c0-18.5 14.99-33.49 33.49-33.49v.03c18.5 0 33.49 14.99 33.49 33.49S75.16 90.23 56.66 90.23c-1.13 0-2.25-.07-3.35-.18l-.3-.03a6.849 6.849 0 0 1 .81-13.65c.22 0 .44.01.66.03h.11c.68.07 1.38.11 2.08.11 10.93 0 19.8-8.87 19.8-19.8 0-10.93-8.87-19.8-19.8-19.8-10.93 0-19.8 8.86-19.8 19.8 0 3.93 1.15 7.59 3.12 10.67.01 0 .01.02.01.02Zm14.54 9a.373.373 0 0 1-.08-.01h.07l.01.01Zm-1.23 13.63c-.033-.004-.067-.006-.1-.008-.067-.005-.133-.009-.2-.022l.3.03ZM56.69 0c-5.45 0-10.72.79-15.71 2.22-.38.07-.75.18-1.1.31-2.73 1.01-4.68 3.62-4.68 6.7 0 3.95 3.2 7.15 7.15 7.15.54 0 1.06-.06 1.57-.18.29-.06.57-.15.84-.25 3.79-1.11 7.79-1.71 11.94-1.71 23.44 0 42.45 19 42.45 42.45 0 23.45-19 42.45-42.45 42.45-23.45 0-42.45-18.99-42.45-42.43 0-12.13 5.1-23.07 13.26-30.81.13-.12.26-.24.38-.37a7.12 7.12 0 0 0 2-4.96c0-3.95-3.2-7.15-7.15-7.15-1.68 0-3.23.59-4.45 1.56-.32.26-.62.55-.9.86C6.69 26.16 0 40.65 0 56.7c0 31.31 25.38 56.69 56.69 56.69s56.69-25.38 56.69-56.69S88 .01 56.69.01V0Zm348.42 13.06H390.8V87.5h14.31V13.06Zm6.28 22.35h14.4l11.57 30.01 11.45-30.01h14.5L443.2 87.53h-11.67l-20.14-52.12Zm-55.18-.11c-14.47 0-26.2 11.73-26.2 26.2 0 14.47 11.73 26.2 26.2 26.2 14.47 0 26.2-11.73 26.2-26.2 0-14.47-11.73-26.2-26.2-26.2Zm0 39.43c-7.31 0-13.24-5.93-13.24-13.24 0-7.31 5.93-13.24 13.24-13.24 7.31 0 13.24 5.93 13.24 13.24 0 7.31-5.93 13.24-13.24 13.24ZM239.63 38.81c3.85-2.23 8.33-3.51 13.1-3.51v.01c14.47 0 26.2 11.73 26.2 26.2 0 14.47-11.73 26.2-26.2 26.2-5.14 0-9.93-1.49-13.97-4.04-1.82 3.9-6.17 3.87-6.17 3.87h-6.75l.07-74.46h13.72v25.73Zm-.14 22.68c0 7.31 5.93 13.24 13.24 13.24 7.31 0 13.24-5.93 13.24-13.24 0-7.31-5.93-13.24-13.24-13.24-7.31 0-13.24 5.93-13.24 13.24Zm57.23 11.41c.98 2.43 3.33 4.36 7.32 4.36s5.83-2.11 5.83-4.32c0-1.81-1.21-3.32-4.92-4.12l-5.73-1.31c-10.65-2.31-14.88-8.34-14.88-15.38 0-9.15 8.04-16.58 19.2-16.58 14.47 0 19.5 9.05 20 14.88l-13.25.07c-.96-2.25-3.02-3.89-6.55-3.89-2.92 0-5.43 1.71-5.43 4.32 0 2.11 1.71 3.32 3.92 3.72l6.63 1.31c10.35 2.11 15.38 8.34 15.38 15.68 0 8.54-6.53 16.89-19.9 16.89-15.68 0-20.71-10.15-21.11-15.68l13.49.06v-.01Zm224.53-37.5v52.12h14.2V60.21c0-2.8 1.31-12.16 9.82-12.16s8.15 9.36 8.15 9.36V79.5c.08 7.25 6.35 7.89 6.35 7.89l7.95.03s-.01-29.77-.01-34.06c0-10.28-7.88-17.96-18.22-17.96s-14.2 6.25-14.2 6.25.02-1.46-1.93-3.88-4.68-2.37-4.68-2.37h-7.43Zm60.19.01V21.57h14.59v13.84h8.43v10.76h-8.5v23.32s-.33 4.46 4.29 4.46h6.58v13.51h-10.58s-6.96.45-11.61-4.65c-3.55-3.89-3.21-10.18-3.21-10.18V46.22h-8.51v-10.8h8.53l-.01-.01Zm31.87 16.33s1.29-16.1 21.14-16.1l-.01.01c19.86 0 22.12 13.01 22.12 17.74v34.15h-4.83s-7.04.98-8.69-6.84c0 0-3.29 6.84-13.17 6.84-9.88 0-13.89-5.3-13.89-5.3s-3.7-3.49-3.7-9.87c0-6.38 3.7-9.88 6.07-11.47 2.37-1.59 3.96-2.57 11.52-3.65l9.31-1.41s2.74-.28 2.74-3.43c0-3.15-3.36-4.97-7.06-4.97-3.7 0-6.1 1.28-7.61 4.25l-13.94.05Zm21 24.7c7.99 0 8.14-7.37 8.14-7.37l.06-4.19-9.91 1.27s-6.14.38-6.14 5.38 5.83 4.91 5.83 4.91h2.02Zm-119.75-9.79s.33-1.08.33-4.91-.95-11.62-7.2-18.57c-6.25-6.94-13.86-8.36-19.03-8.36-5.17 0-12.94 1.7-19.08 8.9-6.14 7.2-8.1 16.56-6.27 24.89 1.83 8.33 6.87 14.53 16.25 18.36 9.39 3.83 20.26 1.03 25.36-2.24 5.09-3.27 7.12-6.07 7.12-6.07l-9.54-7.56s-4.47 5.07-11.52 5.07c0 0-7.22.35-11.08-3.57-3.14-3.19-2.98-5.94-2.98-5.94h37.64Zm-25.84-19.7c9.57 0 11.47 8.64 11.47 8.64h-22.73s1.7-8.64 11.26-8.64ZM174.36 17.72l-24.1 69.81h8.6c4.3 0 8.12-2.77 9.45-6.86l2.95-9.06h25.19l2.95 9.07a9.916 9.916 0 0 0 9.43 6.85h8.62l-24.07-69.81h-19.02Zm9.78 15.95 8.59 26.42H175l8.59-26.42h.55Z" clip-rule="evenodd"/>
</svg>
