<?xml version="1.0" encoding="UTF-8"?>
<svg width="322" height="139" viewBox="0 0 322 139" xmlns="http://www.w3.org/2000/svg">
  <g fill="#1A1A1A">
    <path d="M302 43.4h18.2v63.4H302z"/>
    <circle cx="311.1" cy="26.8" r="10.3"/>
    <path d="m260.3 107.3c-5.8 0-11.2-1.6-15.9-4.3v31.3h-16.7l-0.1-90.5h8.2s5.3 0 7.5 4.7c4.9-3.1 10.7-4.9 17-4.9 17.6 0 31.9 14.3 31.9 31.8-0.1 17.6-14.3 31.9-31.9 31.9zm0-47.9c-8.9 0-16.1 7.2-16.1 16.1s7.2 16.1 16.1 16.1 16.1-7.2 16.1-16.1-7.2-16.1-16.1-16.1zm-71.2-15.9c-24.1 0-25.7 19.6-25.7 19.6l16.9-0.1c1.8-3.6 4.8-5.2 9.2-5.2s8.6 2.2 8.6 6-3.3 4.2-3.3 4.2l-11.3 1.7c-9.2 1.3-11.1 2.5-14 4.4s-7.4 6.2-7.4 13.9 4.5 12 4.5 12 4.9 6.4 16.9 6.4 16-8.3 16-8.3c2 9.5 10.6 8.3 10.6 8.3h5.9v-41.5s-2.8-21.4-26.9-21.4zm9.7 40.6s-0.2 9-9.9 9h-2.5s-7.1 0.1-7.1-6 7.5-6.5 7.5-6.5l12-1.5v5z"/>
    <circle cx="69.3" cy="69.3" r="13.4"/>
    <path d="M69.3 28.6c-22.5 0-40.7 18.2-40.7 40.7 0 8.1 2.4 15.7 6.5 22 .1.1.1.2.2.3 0 0 0 .1.1.1 1.5 2.2 4 3.6 6.9 3.6 4.6 0 8.3-3.7 8.3-8.3 0-1.7-.5-3.2-1.4-4.6 0-.1-.1-.1-.1-.2-2.4-3.7-3.8-8.2-3.8-13-.1-13.2 10.7-24 24-24S93.4 56 93.4 69.3 82.6 93.4 69.3 93.4c-.9 0-1.7 0-2.5-.1h-1c-4.6 0-8.3 3.7-8.3 8.3 0 4.3 3.2 7.8 7.3 8.3h.4c1.3.1 2.7.2 4.1.2 22.5 0 40.7-18.2 40.7-40.7 0-22.5-18.2-40.8-40.7-40.8z"/>
    <path d="M69.3.3c-6.6 0-13 1-19.1 2.7-.5.1-.9.2-1.3.4-3.3 1.2-5.7 4.4-5.7 8.1 0 4.8 3.9 8.7 8.7 8.7.7 0 1.3-.1 1.9-.2.4-.1.7-.2 1-.3 4.6-1.3 9.5-2.1 14.5-2.1 28.5 0 51.6 23.1 51.6 51.6s-23.1 51.6-51.6 51.6-51.6-23.1-51.6-51.6c0-14.7 6.2-28 16.1-37.4.2-.1.3-.3.5-.4 1.5-1.6 2.4-3.7 2.4-6 0-4.8-3.9-8.7-8.7-8.7-2 0-3.9.7-5.4 1.9-.4.3-.8.7-1.1 1C8.6 32.1.4 49.7.4 69.2c0 38 30.8 68.9 68.9 68.9 38.1 0 68.9-30.8 68.9-68.9 0-38-30.8-68.9-68.9-68.9z"/>
  </g>
</svg>
