<svg xmlns="http://www.w3.org/2000/svg" fill="none" width="541" height="114" viewBox="0 0 541 114">
    <path fill="#09AA31" fill-rule="evenodd" d="m7.18 100.74 10.81 10.81a6.27 6.27 0 0 0 8.87 0l64.75-64.77a23.888 23.888 0 0 0 7.04-17c0-6.42-2.5-12.46-7.04-17L80.67 1.84a6.27 6.27 0 0 0-8.87 0L51.56 22.1a3.15 3.15 0 0 1-4.44 0L26.86 1.84a6.27 6.27 0 0 0-8.87 0L7.04 12.78C2.5 17.32 0 23.35 0 29.78s2.5 12.47 7.04 17l7.69 7.69a3.15 3.15 0 0 1 0 4.44L7.04 66.6C2.46 71.18-.04 77.28 0 83.77c.04 6.37 2.67 12.46 7.18 16.97ZM20.2 15.59a3.15 3.15 0 0 1 4.44 0l20.98 21a5.227 5.227 0 0 0 7.39 0l21-21a3.15 3.15 0 0 1 4.44 0l5.18 5.18a12.67 12.67 0 0 1 3.74 9.02c0 3.41-1.33 6.61-3.74 9.02L24.64 97.8a3.15 3.15 0 0 1-4.44 0l-5.18-5.18a12.67 12.67 0 0 1-3.74-9.02c0-3.41 1.33-6.61 3.74-9.02l14.19-14.19a5.227 5.227 0 0 0 0-7.39L15.02 38.81a12.67 12.67 0 0 1-3.74-9.02c0-3.41 1.33-6.61 3.74-9.02l5.18-5.18Zm52.84 11.05a4.484 4.484 0 0 1 6.34 0l.01-.01a4.484 4.484 0 0 1 0 6.34L25.63 86.73c-.87.87-2.02 1.31-3.17 1.31a4.45 4.45 0 0 1-3.17-1.31 4.484 4.484 0 0 1 0-6.34L39.3 60.38a5.227 5.227 0 0 0 0-7.39L19.29 32.98a4.484 4.484 0 0 1 0-6.34 4.484 4.484 0 0 1 6.34 0l20.01 20.01a5.227 5.227 0 0 0 7.39 0l20.01-20.01Zm320.1 7.84h-15.01v52.4h15.01v-52.4Zm.44-14.3v.04a7.94 7.94 0 0 1-15.88 0v-.04a7.94 7.94 0 0 1 15.88 0Zm-88.85 14.51v52.12h-7.43s-2.73.05-4.68-2.37c-1.95-2.42-1.93-3.88-1.93-3.88s-3.86 6.25-14.2 6.25-18.22-7.68-18.22-17.96c0-4.29-.01-34.06-.01-34.06l7.95.03s6.27.64 6.35 7.89V64.8s-.36 9.36 8.15 9.36 9.82-9.36 9.82-12.16V34.69h14.2Zm25.05 3.22c3.85-2.23 8.33-3.51 13.1-3.51v.01c14.47 0 26.2 11.73 26.2 26.2 0 14.47-11.73 26.2-26.2 26.2-5.14 0-9.93-1.49-13.97-4.04-1.82 3.9-6.17 3.87-6.17 3.87h-6.75l.07-74.46h13.72v25.73Zm-.14 22.68c0 7.31 5.93 13.24 13.24 13.24 7.31 0 13.24-5.93 13.24-13.24 0-7.31-5.93-13.24-13.24-13.24-7.31 0-13.24 5.93-13.24 13.24Zm-81.68 13.66V86.6H200.9V74.29l27.63-27.63H201.9V34.48h44.43v12.28l-27.51 27.51 29.14-.02Zm172.54 4.62a7.94 7.94 0 1 1-15.88 0 7.94 7.94 0 0 1 15.88 0Zm32.92-44.47c4.78 0 9.25 1.28 13.11 3.51V12.18h13.72l.07 74.46h-6.76s-4.35.03-6.17-3.87a26.12 26.12 0 0 1-13.97 4.04c-14.48 0-26.21-11.73-26.21-26.2 0-14.47 11.74-26.2 26.21-26.2v-.01Zm0 39.43c7.31 0 13.24-5.93 13.24-13.24 0-7.31-5.93-13.24-13.24-13.24-7.31 0-13.24 5.93-13.24 13.24 0 7.31 5.93 13.24 13.24 13.24Zm86.86-14.1c0 3.83-.33 4.91-.33 4.91h-37.64s-.16 2.75 2.98 5.94c3.86 3.92 11.08 3.57 11.08 3.57 7.05 0 11.52-5.07 11.52-5.07l9.54 7.56s-2.03 2.8-7.12 6.07c-5.1 3.27-15.98 6.07-25.36 2.24-9.38-3.83-14.42-10.03-16.25-18.36a28.89 28.89 0 0 1 6.27-24.89c6.14-7.2 13.91-8.9 19.08-8.9 5.17 0 12.78 1.42 19.03 8.36 6.25 6.95 7.2 14.74 7.2 18.57Zm-14.7-6.15s-1.9-8.64-11.47-8.64c-9.56 0-11.26 8.64-11.26 8.64h22.73ZM149.26 17l-24.1 69.81h8.6c4.3 0 8.12-2.77 9.45-6.86l2.95-9.06h25.19l2.95 9.07a9.916 9.916 0 0 0 9.43 6.85h8.62L168.28 17h-19.02Zm9.78 15.95 8.59 26.42H149.9l8.59-26.42h.55Z" clip-rule="evenodd"/>
</svg>
