<?xml version="1.0" encoding="UTF-8"?>
<svg aria-hidden="true" width="632" height="140" enable-background="new 0 0 632.2 139.9" preserveaspectratio="xMinYMin" version="1.1" viewBox="0 0 632.2 139.9" xml:space="preserve" xmlns="http://www.w3.org/2000/svg">
	<g fill="#6b97f8">
		<path d="m348.8 41.7v63.3h-9s-3.3 0.1-5.7-2.9-2.3-4.7-2.3-4.7-4.7 7.6-17.2 7.6-22.1-9.3-22.1-21.8v-41.4h9.7s7.6 0.8 7.7 9.6v26.8s-0.4 11.4 9.9 11.4 11.9-11.4 11.9-14.8v-33.2h17.1z"/>
		<path d="m629.9 79.1s0.4-1.3 0.4-6-1.2-14.1-8.8-22.6-16.8-10.2-23.1-10.2-15.7 2.1-23.2 10.8-9.8 20.1-7.6 30.2 8.3 17.7 19.8 22.3 24.6 1.2 30.8-2.7 8.7-7.4 8.7-7.4l-11.6-9.2s-5.4 6.2-14 6.2c0 0-8.8 0.4-13.5-4.3-3.8-3.9-3.6-7.2-3.6-7.2h45.7zm-31.4-23.9c11.6 0 13.9 10.5 13.9 10.5h-27.6s2.1-10.5 13.7-10.5z"/>
		<path d="m524.7 41.8c5.8 0 11.2 1.6 15.9 4.3v-31.4h16.7l0.1 90.5h-8.2s-5.3 0-7.5-4.7c-4.9 3.1-10.7 4.9-17 4.9-17.6 0-31.9-14.3-31.9-31.8 0-17.6 14.3-31.8 31.9-31.8zm0 47.9c8.9 0 16.1-7.2 16.1-16.1s-7.2-16.1-16.1-16.1-16.1 7.2-16.1 16.1 7.2 16.1 16.1 16.1z"/>
		<path d="m187.2 41.9c-24.1 0-25.7 19.6-25.7 19.6l16.9-0.1c1.8-3.6 4.8-5.2 9.2-5.2s8.6 2.2 8.6 6-3.3 4.2-3.3 4.2l-11.3 1.7c-9.2 1.3-11.1 2.5-14 4.4s-7.4 6.2-7.4 13.9 4.5 12 4.5 12 4.9 6.4 16.9 6.4 16-8.3 16-8.3c2 9.5 10.6 8.3 10.6 8.3h5.9v-41.5s-2.7-21.4-26.9-21.4zm9.8 40.6s-0.2 9-9.9 9h-2.5s-7.1 0.1-7.1-6 7.5-6.5 7.5-6.5l12-1.5v5z"/>
		<path d="m395.9 41.5c-5.8 0-11.2 1.6-15.9 4.3v-31.3h-16.7l-0.1 90.5h8.2s5.3 0 7.5-4.7c4.9 3.1 10.7 4.9 17 4.9 17.6 0 31.8-14.3 31.8-31.8 0.1-17.6-14.2-31.9-31.8-31.9zm0 47.9c-8.9 0-16.1-7.2-16.1-16.1s7.2-16.1 16.1-16.1 16.1 7.3 16.1 16.1-7.2 16.1-16.1 16.1z"/>
		<rect x="436.9" y="41.5" width="18.2" height="63.4"/>
		<circle cx="446" cy="24.9" r="10.3"/>
		<circle cx="477.2" cy="94.5" r="10.3"/>
		<polygon points="282 89.7 282 104.6 225.2 104.6 225.2 89.8 258.6 56.4 226.4 56.4 226.4 41.7 280.1 41.7 280.1 56.5 246.9 89.7"/>
		<ellipse transform="matrix(.7071 -.7071 .7071 .7071 -28.887 69.693)" cx="69.7" cy="69.7" rx="13.4" ry="13.3"/>
		<path d="m66.8 29.1c-20.4 1.4-36.7 18.1-37.8 38.5-0.5 8.9 2 17.3 6.4 24.2 0.1 0.1 0.1 0.2 0.2 0.3 0 0 0 0.1 0.1 0.1 1.8 2.6 4.9 4.1 8.4 3.5s6.2-3.5 6.7-7.1c0.3-2.1-0.2-4.1-1.3-5.7 0-0.1-0.1-0.1-0.1-0.2-2.4-3.7-3.8-8.2-3.8-13 0-13.4 11.6-24.6 25-24 13.5 0.5 24.1 12.2 23 26-0.8 9.7-7.6 18.1-16.9 21-3.3 1-6.5 1.3-9.6 1h-0.1-0.1-0.8c-4.6 0-8.3 3.7-8.3 8.3 0 4.3 3.2 7.8 7.3 8.3h0.4c1.3 0.1 2.7 0.2 4.1 0.2 22.5 0 40.7-18.2 40.7-40.7 0.1-23.5-19.7-42.3-43.5-40.7z"/>
		<path d="m69.7 0.8c-6.6 0-13 1-19.1 2.7-0.5 0.1-0.9 0.2-1.3 0.4-3.4 1.3-5.8 4.6-5.7 8.5 0.1 3.4 2.4 6.4 5.6 7.7 1.8 0.7 3.4 0.7 5 0.4 0.4-0.1 0.7-0.2 1-0.3 6.2-1.8 12.9-2.5 19.8-1.8 24.7 2.5 44.3 22.6 46.1 47.4 2.3 31.3-23.3 57.2-54.4 55.4-26.1-1.5-47.2-22.7-48.5-48.8-0.8-15.8 5.5-30.2 16-40.1 0.2-0.1 0.3-0.3 0.5-0.4 1.8-1.9 2.8-4.6 2.3-7.5-0.6-3.6-3.6-6.5-7.2-7.1-2.6-0.4-5 0.3-6.8 1.8-0.4 0.3-0.8 0.7-1.1 1-13.3 12.8-21.5 31-21.1 51.2 0.9 37.7 32.4 67.9 70.1 67.3 37.5-0.6 67.7-31.2 67.7-68.9 0-38.1-30.8-68.9-68.9-68.9z"/>
	</g>
</svg>
