<?xml version="1.0" encoding="UTF-8"?>
<svg aria-hidden="true" width="966" height="142" enable-background="new 0 0 966.4 142" preserveaspectratio="xMinYMin" version="1.1" viewBox="0 0 966.4 142" xml:space="preserve" xmlns="http://www.w3.org/2000/svg">
	<g fill="#2571B8">
		<path d="m308.8 39.6c-24.1 0-25.7 19.6-25.7 19.6l16.9-0.1c1.8-3.6 4.8-5.2 9.2-5.2s8.6 2.2 8.6 6-3.3 4.2-3.3 4.2l-11.3 1.7c-9.2 1.3-11.1 2.5-14 4.4s-7.4 6.2-7.4 13.9 4.5 12 4.5 12 4.9 6.4 16.9 6.4 16-8.3 16-8.3c2 9.5 10.6 8.3 10.6 8.3h5.9v-41.5s-2.8-21.4-26.9-21.4zm9.7 40.6s-0.2 9-9.9 9h-2.5s-7.1 0.1-7.1-6 7.5-6.5 7.5-6.5l12-1.5v5z"/>
		<path d="m414.9 39.6v-16.8h17.7v16.8h10.2v13.1h-10.3v28.3s-0.4 5.4 5.2 5.4 8 0 8 0v16.4h-12.9s-8.5 0.5-14.1-5.6c-4.3-4.7-3.9-12.4-3.9-12.4v-32.1h-10.3v-13.1h10.4z"/>
		<path d="m276.2 56.7l-2.4 0.1s-10.3 0.1-14.8 6.1c-4.3 5.7-3.5 12.4-3.5 12.4v27.4h-17.6v-63h9.6s2.7-0.2 5.2 3c2.5 3.1 2.1 5.6 2.1 5.6s1-3.6 5.8-6.5 10.2-2.7 10.2-2.7h5.6v17.4l-0.2 0.2z"/>
		<path d="m614.1 39.4v63.3h-9s-3.3 0.1-5.7-2.9-2.3-4.7-2.3-4.7-4.7 7.6-17.2 7.6-22.1-9.3-22.1-21.8v-41.4h9.7s7.6 0.8 7.7 9.6v26.9s-0.4 11.4 9.9 11.4 11.9-11.4 11.9-14.8v-33.2h17.1z"/>
		<path d="m794.8 102.8v-63.4h9s3.3-0.1 5.7 2.9 2.3 4.7 2.3 4.7 4.7-7.6 17.2-7.6 22.1 9.3 22.1 21.8v41.4h-9.7s-7.6-0.8-7.7-9.6v-26.8s0.4-11.4-9.9-11.4-11.9 11.4-11.9 14.8v33.2h-17.1z"/>
		<path d="m933.2 39.2c-17.6 0-31.8 14.3-31.8 31.8 0 17.6 14.3 31.8 31.8 31.8 17.6 0 31.8-14.3 31.8-31.8 0.1-17.5-14.2-31.8-31.8-31.8zm0 47.9c-8.9 0-16.1-7.2-16.1-16.1s7.2-16.1 16.1-16.1 16.1 7.2 16.1 16.1-7.2 16.1-16.1 16.1z"/>
		<path d="m198.3 102.3c-5.8 0-11.2-1.6-15.9-4.3v31.3h-16.7l-0.1-90.5h8.2s5.3 0 7.5 4.7c4.9-3.1 10.7-4.9 17-4.9 17.6 0 31.9 14.3 31.9 31.8-0.1 17.6-14.3 31.9-31.9 31.9zm0-47.9c-8.9 0-16.1 7.2-16.1 16.1s7.2 16.1 16.1 16.1 16.1-7.2 16.1-16.1-7.2-16.1-16.1-16.1z"/>
		<path d="m348.1 102.7v-90.6h17.4v45.5l13.5-18.4h18.5l-17.5 24.4 24.3 39.1h-19.5l-15.5-24.8-3.8 5.4v19.4s-17.3-0.1-17.4 0z"/>
		<path d="m494 102.7v-90.6h17.4v45.5l13.6-18.3h18.5l-17.6 24.4 24.2 39h-19.4l-15.5-24.7-3.8 5.4v19.4s-17.3-0.1-17.4-0.1z"/>
		<rect x="459" y="39.4" width="18.2" height="63.4"/>
		<circle cx="468.1" cy="22.8" r="10.3"/>
		<rect x="762.4" y="39.4" width="18.2" height="63.4"/>
		<circle cx="771.6" cy="22.9" r="10.3"/>
		<path d="m868.7 30.9v8.6h-10.5v13.1h10.4v50.1h17.6v-50.1h10.4v-13.1h-10.4v-5.7s0-2.4 1.6-3.7 3.8-1.3 3.8-1.3h7.8v-16.4h-13.8s-6.2 0-11.1 3.6-5.6 9.8-5.6 10.4c-0.3 2.1-0.2 4.5-0.2 4.5z"/>
		<circle cx="740.2" cy="92.3" r="10.3"/>
		<path d="m719.4 61.2c0-12.5-9.6-21.8-22.1-21.8s-17.3 7.5-17.3 7.5-0.2 0.4-0.6 1c-2.9-5.4-8.3-8.6-17.2-8.6-12.6 0.1-16.2 7.6-16.2 7.6s0-1.8-2.3-4.7-5.7-2.9-5.7-2.9h-9v63.3h17.2v-33.2c0-3.4 0.6-14.8 10.9-14.8s9.9 11.4 9.9 11.4v36.5h7.7 7.4v-34.7-0.4-1.7c0.2-4.2 1.4-11 10-11 10.3 0 9.9 11.4 9.9 11.4v26.8c0.1 8.8 7.7 9.6 7.7 9.6h9.7v-41.3z"/>
		<ellipse transform="matrix(.7071 -.7071 .7071 .7071 -29.307 70.654)" cx="70.6" cy="70.7" rx="13.4" ry="13.3"/>
		<path d="m67.7 30.1c-20.3 1.4-36.7 18.1-37.7 38.5-0.5 8.9 2 17.3 6.4 24.2 0.1 0.1 0.1 0.2 0.2 0.3 0 0 0 0.1 0.1 0.1 1.8 2.6 4.9 4.1 8.4 3.5s6.2-3.5 6.7-7.1c0.3-2.1-0.2-4.1-1.3-5.7 0-0.1-0.1-0.1-0.1-0.2-2.4-3.7-3.8-8.2-3.8-13 0-13.4 11.6-24.6 25-24 13.5 0.5 24.1 12.2 23 26-0.8 9.7-7.6 18.1-16.9 21-3.3 1-6.5 1.3-9.6 1h-0.1-0.1-0.8c-4.6 0-8.3 3.7-8.3 8.3 0 4.3 3.2 7.8 7.3 8.3h0.4c1.3 0.1 2.7 0.2 4.1 0.2 22.5 0 40.7-18.2 40.7-40.7 0-23.5-19.8-42.3-43.6-40.7z"/>
		<path d="m70.7 1.8c-6.6 0-13 1-19.1 2.7-0.5 0.1-0.9 0.2-1.3 0.4-3.4 1.3-5.8 4.6-5.7 8.5 0.1 3.4 2.4 6.4 5.6 7.7 1.8 0.7 3.4 0.7 5 0.4 0.4-0.1 0.7-0.2 1-0.3 6.2-1.8 12.9-2.5 19.8-1.8 24.7 2.5 44.3 22.6 46.1 47.4 2.3 31.3-23.3 57.2-54.4 55.4-26.1-1.5-47.2-22.7-48.5-48.8-0.8-15.8 5.5-30.2 16-40.1 0.2-0.1 0.3-0.3 0.5-0.4 1.8-1.9 2.8-4.6 2.3-7.5-0.6-3.6-3.6-6.5-7.2-7.1-2.6-0.4-5 0.3-6.8 1.8-0.4 0.3-0.8 0.7-1.1 1-13.4 12.8-21.6 31-21.1 51.2 0.9 37.7 32.4 67.9 70.1 67.3 37.5-0.6 67.7-31.2 67.7-68.9 0-38.1-30.9-68.9-68.9-68.9z"/>
	</g>
</svg>
