<?xml version="1.0" encoding="UTF-8"?>
<svg aria-hidden="true" enable-background="new 0 0 1108.9 140.3" version="1.1" viewBox="0 0 1108.9 140.3" xml:space="preserve" xmlns="http://www.w3.org/2000/svg">
	<g fill="#0791D3">
		<path d="m357.6 105.8v-63.4h9s3.3-0.1 5.7 2.9 2.3 4.7 2.3 4.7 4.7-7.6 17.2-7.6 22.2 9.4 22.2 21.9v41.4h-9.7s-7.6-0.8-7.7-9.6v-26.9s0.4-11.4-9.9-11.4-11.9 11.4-11.9 14.8v33.2h-17.2z"/>
		<path d="m486.4 79.7s0.4-1.3 0.4-6-1.2-14.1-8.8-22.6-16.8-10.1-23.1-10.1-15.7 2.1-23.2 10.8-9.8 20.1-7.6 30.2 8.3 17.7 19.8 22.3 24.6 1.2 30.8-2.7 8.7-7.4 8.7-7.4l-11.6-9.2s-5.4 6.2-14 6.2c0 0-8.8 0.4-13.5-4.3-3.8-3.9-3.6-7.2-3.6-7.2h45.7zm-31.4-24c11.6 0 13.9 10.5 13.9 10.5h-27.6s2-10.5 13.7-10.5z"/>
		<path d="m556.4 79.7s0.4-1.3 0.4-6-1.2-14.1-8.8-22.6-16.8-10.1-23.1-10.1-15.7 2.1-23.2 10.8-9.8 20.1-7.6 30.2 8.3 17.7 19.8 22.3c11.4 4.7 24.6 1.2 30.8-2.7s8.7-7.4 8.7-7.4l-11.6-9.2s-5.4 6.2-14 6.2c0 0-8.8 0.4-13.5-4.3-3.8-3.9-3.6-7.2-3.6-7.2h45.7zm-31.4-24c11.6 0 13.9 10.5 13.9 10.5h-27.6s2-10.5 13.7-10.5z"/>
		<path d="m746.4 79.7s0.4-1.3 0.4-6-1.2-14.1-8.8-22.6-16.8-10.1-23.1-10.1-15.7 2.1-23.2 10.8-9.8 20.1-7.6 30.2 8.3 17.7 19.8 22.3 24.6 1.2 30.8-2.7 8.7-7.4 8.7-7.4l-11.6-9.2s-5.4 6.2-14 6.2c0 0-8.8 0.4-13.5-4.3-3.8-3.9-3.6-7.2-3.6-7.2h45.7zm-31.4-24c11.6 0 13.9 10.5 13.9 10.5h-27.6s2-10.5 13.7-10.5z"/>
		<path d="m1060.4 79.7s0.4-1.3 0.4-6-1.2-14.1-8.8-22.6-16.8-10.1-23.1-10.1-15.7 2.1-23.2 10.8-9.8 20.1-7.6 30.2 8.3 17.7 19.8 22.3 24.6 1.2 30.8-2.7 8.7-7.4 8.7-7.4l-11.6-9.2s-5.4 6.2-14 6.2c0 0-8.8 0.4-13.5-4.3-3.8-3.9-3.6-7.2-3.6-7.2h45.7zm-31.4-24c11.6 0 13.9 10.5 13.9 10.5h-27.6s2-10.5 13.7-10.5z"/>
		<path d="m174.1 42.5v-16.8h17.7v16.8h10.3v13.1h-10.3v28.3s-0.4 5.4 5.2 5.4h8v16.4h-12.9s-8.5 0.5-14.1-5.6c-4.3-4.7-3.9-12.4-3.9-12.4v-32.1h-10.3v-13.1h10.3z"/>
		<path d="m256.9 59.5l-2.4 0.1s-10.3 0.1-14.8 6.1c-4.3 5.7-3.5 12.4-3.5 12.4v27.4h-17.6v-63.1h9.6s2.7-0.2 5.2 3 2.1 5.6 2.1 5.6 1-3.6 5.8-6.5 10.2-2.7 10.2-2.7h5.6v17.4l-0.2 0.3z"/>
		<path d="m1107.1 59.7l-2.4 0.1s-10.3 0.1-14.8 6.1c-4.3 5.7-3.5 12.4-3.5 12.4v27.4h-17.6v-63h9.6s2.7-0.2 5.2 3c2.5 3.1 2.1 5.6 2.1 5.6s1-3.6 5.8-6.5 10.2-2.7 10.2-2.7h5.6v17.4l-0.2 0.2z"/>
		<path d="m287 42.7c-24.1 0-25.7 19.6-25.7 19.6l16.9-0.1c1.8-3.6 4.8-5.2 9.2-5.2s8.6 2.2 8.6 6-3.3 4.2-3.3 4.2l-11.3 1.7c-9.2 1.3-11.1 2.5-14 4.4s-7.4 6.2-7.4 13.9 4.5 12 4.5 12 4.9 6.4 16.9 6.4 16-8.3 16-8.3c2 9.5 10.6 8.3 10.6 8.3h5.9v-41.5s-2.8-21.4-26.9-21.4zm9.7 40.6s-0.2 9-9.9 9h-2.5s-7.1 0.1-7.1-6 7.5-6.5 7.5-6.5l12-1.5v5z"/>
		<path d="m959.1 42.6v-16.9h17.7v16.8h10.2v13.1h-10.3v28.4s-0.4 5.4 5.2 5.4h8v16.4h-12.9s-8.5 0.5-14.1-5.6c-4.3-4.7-3.9-12.4-3.9-12.4v-32.1h-10.3v-13.1h10.4z"/>
		<path d="m888.3 42.4v63.3h-9s-3.3 0.1-5.7-2.9-2.3-4.7-2.3-4.7-4.7 7.6-17.2 7.6-22.1-9.3-22.1-21.8v-41.4h9.7s7.6 0.8 7.7 9.6v26.9s-0.4 11.4 9.9 11.4 11.9-11.4 11.9-14.8v-33.2h17.1z"/>
		<rect x="326.5" y="42.5" width="18.2" height="63.4"/>
		<circle cx="335.6" cy="25.9" r="10.3"/>
		<circle cx="850.4" cy="23.8" r="8.5"/>
		<circle cx="871.4" cy="23.8" r="8.5"/>
		<path d="m758.9 33.9v8.6h-10.5v13.1h10.4v50.1h17.6v-50.2h10.4v-13.1h-10.4v-5.7s0-2.4 1.6-3.7 3.8-1.3 3.8-1.3h7.8v-16.3h-13.8s-6.2 0-11.1 3.6-5.6 9.8-5.6 10.4c-0.2 2-0.2 4.5-0.2 4.5z"/>
		<rect x="801.6" y="15.3" width="17.4" height="90.5"/>
		<path d="m912.6 87.1c1.2 3 4 5.3 8.9 5.3 4.8 0 7.1-2.6 7.1-5.3 0-2.2-1.5-4-6-5l-7-1.6c-12.9-2.8-18.1-10.1-18.1-18.7 0-11.1 9.8-20.2 23.3-20.2 17.6 0 23.7 11 24.3 18.1l-16.1 0.2c-1.2-2.7-3.7-4.7-8-4.7-3.5 0-6.6 2.1-6.6 5.3 0 2.6 2.1 4 4.8 4.5l8.1 1.6c12.6 2.6 18.7 10.1 18.7 19.1 0 10.4-7.9 20.5-24.2 20.5-19.1 0-25.2-12.3-25.7-19.1h16.5z"/>
		<rect x="568.7" y="66.2" width="31.4" height="13.4"/>
		<path d="m673.3 101.4v-59h-9.2c-4.6 0-6.4 3.5-6.8 4.4-4.7-2.8-10.2-4.3-16-4.3-17.6 0-31.8 14.3-31.8 31.8 0 17.6 14.3 31.8 31.8 31.8 5.9 0 11.3-1.6 16-4.3-0.2 2.9-0.7 5-0.7 5s-2.7 11.8-15.7 11.8-16.4-11.6-16.4-11.6l-14.5 6s2 6 7.3 10.9 12.7 8.8 22.2 8.8 20.2-2.8 27.6-12.4c7.3-9.7 6.2-18.9 6.2-18.9zm-32.1-11c-8.9 0-16.1-7.2-16.1-16.1s7.2-16.1 16.1-16.1 16.1 7.2 16.1 16.1-7.3 16.1-16.1 16.1z"/>
		<ellipse transform="matrix(.7071 -.7071 .7071 .7071 -29.031 70.166)" cx="70.2" cy="70.1" rx="13.4" ry="13.3"/>
		<path d="m67.3 29.5c-20.4 1.4-36.7 18.1-37.8 38.5-0.5 8.9 2 17.3 6.4 24.2 0.1 0.1 0.1 0.2 0.2 0.3 0 0 0 0.1 0.1 0.1 1.8 2.6 4.9 4.1 8.4 3.5s6.2-3.5 6.7-7.1c0.3-2.1-0.2-4.1-1.3-5.7 0-0.1-0.1-0.1-0.1-0.2-2.4-3.7-3.8-8.2-3.8-13 0-13.4 11.6-24.6 25-24 13.5 0.5 24.1 12.2 23 26-0.8 9.7-7.6 18.1-16.9 21-3.3 1-6.5 1.3-9.6 1h-0.1-0.1-0.8c-4.6 0-8.3 3.7-8.3 8.3 0 4.3 3.2 7.8 7.3 8.3h0.4c1.3 0.1 2.7 0.2 4.1 0.2 22.5 0 40.7-18.2 40.7-40.7 0.1-23.5-19.7-42.3-43.5-40.7z"/>
		<path d="m70.2 1.2c-6.6 0-13 1-19.1 2.7-0.5 0.1-0.9 0.2-1.3 0.4-3.4 1.3-5.8 4.6-5.7 8.5 0.1 3.4 2.4 6.4 5.6 7.7 1.8 0.7 3.4 0.7 5 0.4 0.4-0.1 0.7-0.2 1-0.3 6.2-1.8 12.9-2.5 19.8-1.8 24.7 2.5 44.3 22.6 46.1 47.4 2.3 31.3-23.3 57.2-54.4 55.4-26.1-1.5-47.2-22.7-48.5-48.8-0.8-15.8 5.5-30.2 16-40.1 0.2-0.1 0.3-0.3 0.5-0.4 1.8-1.9 2.8-4.6 2.3-7.5-0.6-3.6-3.6-6.5-7.2-7.1-2.6-0.4-5 0.3-6.8 1.8-0.4 0.3-0.8 0.7-1.1 1-13.3 12.8-21.5 31.1-21.1 51.2 0.9 37.7 32.4 67.9 70.1 67.3 37.5-0.6 67.7-31.2 67.7-68.9 0-38-30.8-68.9-68.9-68.9z"/>
	</g>
</svg>
